HIERARCHY
ROOT hip
{
	OFFSET 0.000000 0.000000 0.000000
	CHANNELS 6 Xposition Yposition Zposition Zrotation Yrotation Xrotation 
	JOINT lhipjoint
	{
		OFFSET 0.000000 0.000000 0.000000
		CHANNELS 3 Zrotation Yrotation Xrotation
		JOINT lfemur
		{
			OFFSET 1.363060 -1.794630 0.839290
			CHANNELS 3 Zrotation Yrotation Xrotation
			JOINT ltibia
			{
				OFFSET 2.448110 -6.726130 0.000000
				CHANNELS 3 Zrotation Yrotation Xrotation
				JOINT lfoot
				{
					OFFSET 2.562200 -7.039590 0.000000
					CHANNELS 3 Zrotation Yrotation Xrotation
					JOINT ltoes
					{
						OFFSET 0.157640 -0.433110 2.322550
						CHANNELS 3 Zrotation Yrotation Xrotation
						End Site
						{
							OFFSET 0.000000 0.000000 0.000000
						}
					}
				}
			}
		}
	}
	JOINT rhipjoint
	{
		OFFSET 0.000000 0.000000 0.000000
		CHANNELS 3 Zrotation Yrotation Xrotation
		JOINT rfemur
		{
			OFFSET -1.305520 -1.794630 0.839290
			CHANNELS 3 Zrotation Yrotation Xrotation
			JOINT rtibia
			{
				OFFSET -2.542530 -6.985550 0.000000
				CHANNELS 3 Zrotation Yrotation Xrotation
				JOINT rfoot
				{
					OFFSET -2.568260 -7.056230 0.000000
					CHANNELS 3 Zrotation Yrotation Xrotation
					JOINT rtoes
					{
						OFFSET -0.164730 -0.452590 2.363150
						CHANNELS 3 Zrotation Yrotation Xrotation
						End Site
						{
							OFFSET 0.000000 0.000000 0.000000
						}
					}
				}
			}
		}
	}
	JOINT lowerback
	{
		OFFSET 0.000000 0.000000 0.000000
		CHANNELS 3 Zrotation Yrotation Xrotation
		JOINT upperback
		{
			OFFSET 0.028270 2.035590 -0.193380
			CHANNELS 3 Zrotation Yrotation Xrotation
			JOINT thorax
			{
				OFFSET 0.056720 2.048850 -0.042750
				CHANNELS 3 Zrotation Yrotation Xrotation
				JOINT lowerneck
				{
					OFFSET 0.000000 0.000000 0.000000
					CHANNELS 3 Zrotation Yrotation Xrotation
					JOINT upperneck
					{
						OFFSET -0.054170 1.746240 0.172020
						CHANNELS 3 Zrotation Yrotation Xrotation
						JOINT head
						{
							OFFSET 0.104070 1.761360 -0.123970
							CHANNELS 3 Zrotation Yrotation Xrotation
							End Site
							{
								OFFSET 0.000000 0.000000 0.000000
							}
						}
					}
				}
				JOINT lclavicle
				{
					OFFSET 0.000000 0.000000 0.000000
					CHANNELS 3 Zrotation Yrotation Xrotation
					JOINT lhumerus
					{
						OFFSET 3.362410 1.200890 -0.311210
						CHANNELS 3 Zrotation Yrotation Xrotation
						JOINT lradius
						{
							OFFSET 4.983000 -0.000000 -0.000000
							CHANNELS 3 Zrotation Yrotation Xrotation
							JOINT lwrist
							{
								OFFSET 3.483560 -0.000000 -0.000000
								CHANNELS 3 Zrotation Yrotation Xrotation
								JOINT lhand
								{
									OFFSET 0.000000 0.000000 0.000000
									CHANNELS 3 Zrotation Yrotation Xrotation
									JOINT lfingers
									{
										OFFSET 0.715260 -0.000000 -0.000000
										CHANNELS 3 Zrotation Yrotation Xrotation
										End Site
										{
											OFFSET 0.000000 0.000000 0.000000
										}
									}
								}
								JOINT lthumb
								{
									OFFSET 0.000000 0.000000 0.000000
									CHANNELS 3 Zrotation Yrotation Xrotation
									End Site
									{
										OFFSET 0.000000 0.000000 0.000000
									}
								}
							}
						}
					}
				}
				JOINT rclavicle
				{
					OFFSET 0.000000 0.000000 0.000000
					CHANNELS 3 Zrotation Yrotation Xrotation
					JOINT rhumerus
					{
						OFFSET -3.136600 1.374050 -0.404650
						CHANNELS 3 Zrotation Yrotation Xrotation
						JOINT rradius
						{
							OFFSET -5.241900 -0.000000 -0.000000
							CHANNELS 3 Zrotation Yrotation Xrotation
							JOINT rwrist
							{
								OFFSET -3.444170 -0.000000 -0.000000
								CHANNELS 3 Zrotation Yrotation Xrotation
								JOINT rhand
								{
									OFFSET 0.000000 0.000000 0.000000
									CHANNELS 3 Zrotation Yrotation Xrotation
									JOINT rfingers
									{
										OFFSET -0.622530 -0.000000 -0.000000
										CHANNELS 3 Zrotation Yrotation Xrotation
										End Site
										{
											OFFSET 0.000000 0.000000 0.000000
										}
									}
								}
								JOINT rthumb
								{
									OFFSET 0.000000 0.000000 0.000000
									CHANNELS 3 Zrotation Yrotation Xrotation
									End Site
									{
										OFFSET 0.000000 0.000000 0.000000
									}
								}
							}
						}
					}
				}
			}
		}
	}
}
MOTION
Frames: 12
Frame Time: 0.04
-0.159223 17.749482 18.188264 -175.703643 1.554039 -178.924587 4.353344 3.631151 -0.007915 -19.408760 0.283623 -7.957462 1.593106 7.427212 24.724493 2.638866 -9.795053 3.511275 0.550200 -4.751800 -13.202000 -7.125538 -4.291169 -0.323265 33.212996 6.242752 -13.211468 -5.211571 -10.751998 35.265557 -0.353491 3.171457 -1.954248 -0.134000 2.359400 -6.500100 -2.488759 -1.768002 3.541618 1.327875 -2.643272 -3.678756 2.524858 -0.638600 -1.565179 1.331751 6.934364 0.756913 6.596360 7.582236 7.133054 -2.736400 3.492900 -5.512000 5.326266 -10.380758 4.552284 -77.240048 4.214655 44.381290 8.295175 -28.778145 -2.148538 1.147764 1.894458 -9.917063 16.225946 -11.723837 -3.544400 -7.125000 0.000000 0.000000 -8.637000 16.067100 5.978400 -0.105103 10.505166 5.210804 79.105289 -8.134815 39.419606 -6.776577 22.796844 -2.385688 -2.347925 -2.202594 5.608402 -22.698910 14.423099 -6.398500 7.125000 0.000000 0.000000 4.816100 -11.585700 3.764400 
-0.135233 17.727136 18.168917 -175.733430 1.505762 -179.070181 4.366769 3.622435 0.025660 -19.311864 0.397294 -8.374680 1.754051 7.740309 25.698793 2.721532 -10.235690 3.378208 0.519900 -4.621000 -12.830700 -7.137933 -4.258293 -0.462240 33.534015 5.916169 -11.857189 -4.965055 -10.337934 33.905061 -0.375665 3.192398 -3.235239 -0.119300 2.226500 -6.132100 -2.428328 -1.670050 3.595783 1.305438 -2.515266 -3.682459 2.446738 -0.575673 -1.612688 1.250417 6.842429 0.797629 6.633980 7.443543 7.196725 -2.667500 3.436000 -5.515200 5.264757 -10.426019 4.556153 -77.199828 4.417432 44.106006 8.570358 -28.993461 -2.173004 1.107939 1.900720 -9.943518 15.754806 -11.615358 -3.409600 -7.125000 0.000000 0.000000 -8.934900 16.208400 6.161900 -0.080051 10.541262 5.238631 79.129224 -8.612285 40.257230 -7.435261 23.353350 -2.475713 -2.311815 -2.305375 4.568657 -22.831548 14.502782 -6.499100 7.125000 0.000000 0.000000 4.735200 -11.407600 3.718100 
-0.111920 17.706726 18.150054 -175.728755 1.461503 -179.212434 4.377879 3.613197 0.054443 -19.175036 0.538129 -8.792094 1.916900 8.047515 26.659687 2.798279 -10.658186 3.291391 0.495000 -4.510800 -12.518300 -7.150232 -4.226166 -0.585221 33.875537 5.667831 -10.600001 -4.754310 -9.966665 32.705004 -0.413031 3.184731 -4.668956 -0.139100 2.403700 -6.622600 -2.313447 -1.568154 3.651248 1.284681 -2.380667 -3.683375 2.366936 -0.510815 -1.644139 1.165572 6.727141 0.817624 6.640941 7.285634 7.260305 -2.608600 3.371800 -5.514300 5.207599 -10.457970 4.556249 -77.198556 4.589175 43.769295 8.830028 -29.198739 -2.196548 1.067277 1.907522 -9.894423 15.294692 -11.460358 -3.269700 -7.125000 0.000000 0.000000 -9.224000 16.392100 6.329300 -0.042851 10.574198 5.271629 79.087109 -9.072542 41.215804 -8.172862 23.954074 -2.571647 -2.264499 -2.415023 3.408456 -22.911294 14.579740 -6.582800 7.125000 0.000000 0.000000 4.687000 -11.237600 3.696500 
-0.088995 17.685251 18.133900 -175.743978 1.436718 -179.360523 4.390168 3.603097 0.080263 -19.061085 0.632033 -9.198808 2.084735 8.353709 27.625854 2.859598 -11.008422 3.261780 0.469400 -4.394300 -12.188600 -7.159786 -4.195076 -0.690533 34.181977 5.491695 -9.475836 -4.578306 -9.642839 31.669978 -0.464433 3.157787 -6.146866 -0.194600 2.840800 -7.835900 -2.196395 -1.463780 3.741709 1.260449 -2.242466 -3.684600 2.265675 -0.445476 -1.689012 1.060990 6.603126 0.817748 6.639591 7.119158 7.329498 -2.541200 3.306300 -5.502400 5.140078 -10.491973 4.557148 -77.188538 4.803747 43.377418 9.155129 -29.452537 -2.234061 1.025007 1.917614 -9.856199 14.842391 -11.311539 -3.136900 -7.125000 0.000000 0.000000 -9.507800 16.563700 6.493600 -0.008216 10.611278 5.300031 79.038397 -9.510176 42.195617 -8.946186 24.577208 -2.671744 -2.205589 -2.535986 2.255147 -22.989308 14.544267 -6.632900 7.125000 0.000000 0.000000 4.627700 -11.173700 3.655400 
-0.067133 17.660004 18.119777 -175.758328 1.423692 -179.478738 4.404403 3.591588 0.100622 -18.957418 0.673106 -9.660360 2.268459 8.680180 28.653383 2.916559 -11.329912 3.192342 0.447100 -4.289900 -11.893700 -7.168698 -4.167404 -0.775253 34.469780 5.402477 -8.526612 -4.429546 -9.359100 30.768873 -0.519196 3.055691 -7.537639 -0.275200 3.374300 -9.322700 -2.067866 -1.355408 3.806402 1.235110 -2.097776 -3.682234 2.149296 -0.378431 -1.699983 0.954635 6.491336 0.773675 6.653215 6.969895 7.396476 -2.464200 3.248500 -5.480100 5.068120 -10.514475 4.559300 -77.157527 4.996859 43.050969 9.526127 -29.737555 -2.280475 0.981809 1.929591 -9.889410 14.409811 -11.170358 -3.012700 -7.125000 0.000000 0.000000 -9.779800 16.723800 6.650300 0.025313 10.634865 5.323704 78.983603 -9.888623 43.118263 -9.693801 25.182832 -2.775944 -2.148004 -2.649233 1.231373 -23.120562 14.495276 -6.697100 7.125000 0.000000 0.000000 4.532000 -11.116600 3.584700 
-0.045852 17.633886 18.107395 -175.759108 1.424818 -179.599515 4.417717 3.578929 0.118706 -18.832335 0.691696 -10.168572 2.467592 9.021953 29.731270 2.970085 -11.624400 3.078076 0.444800 -4.279000 -11.863100 -7.177859 -4.142507 -0.842404 34.756326 5.377733 -7.698197 -4.307896 -9.117922 30.011358 -0.569852 2.856079 -8.807399 -0.369300 3.903200 -10.804600 -1.914035 -1.238318 3.897671 1.211368 -1.942687 -3.681667 2.059387 -0.303695 -1.732403 0.784488 6.377803 0.735997 6.677165 6.806741 7.462578 -2.360000 3.186300 -5.461200 4.987983 -10.546661 4.558723 -77.147812 5.218793 42.710723 9.929926 -30.053514 -2.338468 0.938746 1.949210 -9.999136 14.034066 -11.012974 -2.901100 -7.125000 0.000000 0.000000 -10.016000 16.888200 6.779600 0.063882 10.654999 5.349160 78.862624 -10.269383 44.191275 -10.535935 25.828964 -2.893366 -2.072964 -2.780481 -0.024691 -23.263592 14.373409 -6.744300 7.125000 0.000000 0.000000 4.422100 -11.122300 3.496700 
-0.026215 17.606123 18.098205 -175.741787 1.437719 -179.707414 4.430681 3.563577 0.132147 -18.687147 0.686715 -10.758562 2.687157 9.391457 30.900191 3.018291 -11.903948 3.037485 0.456300 -4.333400 -12.016400 -7.186262 -4.115082 -0.896600 35.040269 5.448641 -6.967273 -4.207574 -8.914132 29.377525 -0.596490 2.512223 -9.770050 -0.417700 4.148400 -11.494400 -1.711112 -1.125539 3.983113 1.188669 -1.789173 -3.673462 1.936270 -0.234304 -1.716846 0.645322 6.237715 0.650861 6.646961 6.634241 7.522845 -2.286400 3.120800 -5.432500 4.916582 -10.547546 4.560268 -77.136469 5.377214 42.322045 10.320171 -30.354097 -2.401108 0.905653 1.961585 -10.049382 13.711099 -10.947533 -2.820500 -7.125000 0.000000 0.000000 -10.219400 16.962300 6.904900 0.098932 10.665302 5.367533 78.740120 -10.508052 45.082125 -11.267257 26.399593 -2.994292 -1.998726 -2.893374 -1.034121 -23.352206 14.189231 -6.747500 7.125000 0.000000 0.000000 4.338800 -11.213000 3.422400 
-0.007255 17.588421 18.089596 -175.743572 1.466715 -179.823334 4.446948 3.545330 0.144304 -18.568016 0.630530 -11.376986 2.928543 9.780279 32.148683 3.051536 -12.102282 3.037932 0.502800 -4.545900 -12.617800 -7.189150 -4.087647 -0.937882 35.262707 5.571923 -6.328585 -4.129958 -8.751928 28.876976 -0.598950 2.079158 -10.445955 -0.430400 4.210300 -11.669100 -1.495610 -0.986507 4.103953 1.156387 -1.601406 -3.667069 1.723111 -0.148901 -1.745215 0.556889 6.094293 0.599088 6.646155 6.457648 7.563699 -2.203700 3.047200 -5.415200 4.825422 -10.563120 4.571916 -76.978932 5.585042 42.236551 10.828526 -30.703749 -2.481983 0.866322 1.983908 -10.343127 13.467206 -10.835108 -2.749800 -7.125000 0.000000 0.000000 -10.371600 17.071000 6.986200 0.105859 10.685558 5.369478 78.754800 -10.686257 45.594057 -11.806189 26.879643 -3.084094 -1.951784 -2.978397 -1.682996 -23.465030 14.089124 -6.781200 7.125000 0.000000 0.000000 4.252200 -11.226200 3.352500 
0.009770 17.574008 18.083985 -175.743670 1.500670 -179.917995 4.463036 3.523492 0.156315 -18.445880 0.534614 -12.115183 3.194509 10.200594 33.512128 3.059591 -12.187472 3.266623 0.561800 -4.800700 -13.340900 -7.191372 -4.060806 -0.969852 35.458503 5.738433 -5.801127 -4.069375 -8.623561 28.483107 -0.588334 1.654322 -10.911914 -0.422200 4.170600 -11.557100 -1.257856 -0.837839 4.221129 1.123696 -1.398869 -3.656209 1.520609 -0.056398 -1.738803 0.421452 5.930706 0.488742 6.643201 6.255803 7.608864 -2.102000 2.965100 -5.383400 4.742333 -10.563852 4.576914 -76.888072 5.727447 41.995893 11.277937 -31.017200 -2.559881 0.837088 1.996921 -10.479171 13.229442 -10.797307 -2.694600 -7.125000 0.000000 0.000000 -10.520600 17.111200 7.080700 0.110211 10.690773 5.370048 78.704412 -10.785351 46.149111 -12.340814 27.343278 -3.178695 -1.901297 -3.064263 -2.409852 -23.635365 13.975389 -6.829300 7.125000 0.000000 0.000000 4.128000 -11.245000 3.252500 
0.025925 17.562980 18.080987 -175.726701 1.529992 179.983102 4.478316 3.497385 0.173845 -18.289033 0.365773 -12.958929 3.488196 10.654124 35.006758 3.031803 -12.106348 3.843037 0.583000 -4.889200 -13.592900 -7.191847 -4.036727 -0.998660 35.648167 5.869650 -5.351013 -4.018562 -8.515284 28.153328 -0.573661 1.257316 -11.287246 -0.422200 4.170600 -11.557200 -0.985021 -0.688772 4.373814 1.090940 -1.195523 -3.646237 1.292684 0.037469 -1.760018 0.309215 5.775601 0.410391 6.629822 6.069187 7.630761 -2.010700 2.886800 -5.365700 4.661679 -10.568225 4.583859 -76.789903 5.861766 41.738079 11.695695 -31.293482 -2.636949 0.813032 2.008795 -10.596586 13.051497 -10.770809 -2.654500 -7.125000 0.000000 0.000000 -10.631400 17.137100 7.151700 0.106186 10.700690 5.368186 78.686000 -10.836800 46.567522 -12.828023 27.784319 -3.271540 -1.854872 -3.145057 -2.989723 -23.816841 13.835616 -6.872300 7.125000 0.000000 0.000000 3.993200 -11.289000 3.142100 
0.040048 17.554758 18.080309 -175.731228 1.593602 179.888542 4.492975 3.469893 0.199709 -18.149806 0.162068 -13.965676 3.826386 11.158897 36.700965 2.971141 -11.855776 4.789693 0.583800 -4.892200 -13.601400 -7.186433 -4.016134 -1.037562 35.751835 5.842823 -4.976104 -3.961982 -8.401139 27.798164 -0.561417 1.044241 -11.428984 -0.410300 4.111900 -11.391600 -0.725327 -0.533473 4.548169 1.056182 -0.981337 -3.634819 1.046811 0.134848 -1.775130 0.237815 5.593524 0.285762 6.596873 5.860928 7.668061 -1.939300 2.800000 -5.319700 4.598517 -10.560058 4.587682 -76.731460 5.978820 41.355670 12.067779 -31.539951 -2.714500 0.800228 2.015620 -10.598694 12.925443 -10.823858 -2.640500 -7.125000 0.000000 0.000000 -10.708700 17.083800 7.218400 0.091995 10.717547 5.356105 78.716444 -10.785250 46.764894 -13.196584 28.151795 -3.345914 -1.817449 -3.211219 -3.376994 -23.934420 13.690440 -6.886500 7.125000 0.000000 0.000000 3.899200 -11.359400 3.062100 
0.053687 17.554564 18.083405 -175.724193 1.682792 179.787701 4.505545 3.440045 0.234943 -17.976821 -0.108456 -15.128236 4.216320 11.713712 38.596459 2.880465 -11.402438 6.058103 0.562700 -4.804700 -13.352300 -7.176954 -3.999780 -1.086227 35.818535 5.654344 -4.650110 -3.892156 -8.266951 27.375419 -0.542390 0.944893 -11.300758 -0.408600 4.103400 -11.367800 -0.460646 -0.365621 4.776750 1.022474 -0.748923 -3.623886 0.819617 0.242887 -1.812669 0.167756 5.406115 0.165653 6.543531 5.649033 7.690795 -1.879400 2.710900 -5.275300 4.533026 -10.551419 4.588755 -76.657383 6.101411 41.096806 12.491316 -31.826686 -2.802669 0.783118 2.031594 -10.704968 12.834933 -10.825700 -2.625600 -7.125000 0.000000 0.000000 -10.763200 17.071300 7.259400 0.090967 10.737844 5.347688 78.688743 -10.711622 47.045832 -13.638417 28.550852 -3.430482 -1.769853 -3.285436 -3.853054 -24.050400 13.510025 -6.890100 7.125000 0.000000 0.000000 3.801300 -11.461000 2.976900 
